solid OpenSCAD_Model
  facet normal -1 0 0
    outer loop
      vertex 1 1 6.75
      vertex 1 33.5 8.75
      vertex 1 33.5 6.75
    endloop
  endfacet
  facet normal -1 -0 0
    outer loop
      vertex 1 33.5 8.75
      vertex 1 1 6.75
      vertex 1 1 8.75
    endloop
  endfacet
  facet normal 0 0 1
    outer loop
      vertex 43.2 33.5 8.75
      vertex 42.7 33 8.75
      vertex 43.2 1 8.75
    endloop
  endfacet
  facet normal 0 0 1
    outer loop
      vertex 43.2 33.5 8.75
      vertex 1.5 33 8.75
      vertex 42.7 33 8.75
    endloop
  endfacet
  facet normal 0 0 1
    outer loop
      vertex 1.5 33 8.75
      vertex 1 33.5 8.75
      vertex 1.5 1.5 8.75
    endloop
  endfacet
  facet normal -0 0 1
    outer loop
      vertex 1 33.5 8.75
      vertex 1.5 33 8.75
      vertex 43.2 33.5 8.75
    endloop
  endfacet
  facet normal -0 0 1
    outer loop
      vertex 42.7 1.5 8.75
      vertex 43.2 1 8.75
      vertex 42.7 33 8.75
    endloop
  endfacet
  facet normal -0 0 1
    outer loop
      vertex 1.5 1.5 8.75
      vertex 43.2 1 8.75
      vertex 42.7 1.5 8.75
    endloop
  endfacet
  facet normal 0 0 1
    outer loop
      vertex 1.5 1.5 8.75
      vertex 1 1 8.75
      vertex 43.2 1 8.75
    endloop
  endfacet
  facet normal 0 0 1
    outer loop
      vertex 1 1 8.75
      vertex 1.5 1.5 8.75
      vertex 1 33.5 8.75
    endloop
  endfacet
  facet normal 1 -0 0
    outer loop
      vertex 43.2 1 8.75
      vertex 43.2 33.5 6.75
      vertex 43.2 33.5 8.75
    endloop
  endfacet
  facet normal 1 0 0
    outer loop
      vertex 43.2 33.5 6.75
      vertex 43.2 1 8.75
      vertex 43.2 1 6.75
    endloop
  endfacet
  facet normal 0 1 -0
    outer loop
      vertex 43.2 33.5 6.75
      vertex 1 33.5 8.75
      vertex 43.2 33.5 8.75
    endloop
  endfacet
  facet normal 0 1 0
    outer loop
      vertex 1 33.5 8.75
      vertex 43.2 33.5 6.75
      vertex 1 33.5 6.75
    endloop
  endfacet
  facet normal 0 0 1
    outer loop
      vertex 43.2 33.5 6.75
      vertex 44.2 32 6.75
      vertex 44.1951 32.157 6.75
    endloop
  endfacet
  facet normal 0 0 1
    outer loop
      vertex 44.2 32 6.75
      vertex 43.2 33.5 6.75
      vertex 44.2 2.5 6.75
    endloop
  endfacet
  facet normal 0 0 1
    outer loop
      vertex 43.2 33.5 6.75
      vertex 44.1951 32.157 6.75
      vertex 44.1803 32.3133 6.75
    endloop
  endfacet
  facet normal 0 0 1
    outer loop
      vertex 43.2 1 6.75
      vertex 44.2 2.5 6.75
      vertex 43.2 33.5 6.75
    endloop
  endfacet
  facet normal 0 0 1
    outer loop
      vertex 43.2 33.5 6.75
      vertex 44.1803 32.3133 6.75
      vertex 44.1557 32.4685 6.75
    endloop
  endfacet
  facet normal 0 0 1
    outer loop
      vertex 44.2 2.5 6.75
      vertex 43.2 1 6.75
      vertex 44.1951 2.34302 6.75
    endloop
  endfacet
  facet normal 0 0 1
    outer loop
      vertex 43.2 33.5 6.75
      vertex 44.1557 32.4685 6.75
      vertex 44.1215 32.6217 6.75
    endloop
  endfacet
  facet normal 0 0 1
    outer loop
      vertex 44.1951 2.34302 6.75
      vertex 43.2 1 6.75
      vertex 44.1803 2.18667 6.75
    endloop
  endfacet
  facet normal 0 0 1
    outer loop
      vertex 43.2 33.5 6.75
      vertex 44.1215 32.6217 6.75
      vertex 44.0776 32.7725 6.75
    endloop
  endfacet
  facet normal 0 0 1
    outer loop
      vertex 44.1803 2.18667 6.75
      vertex 43.2 1 6.75
      vertex 44.1557 2.03155 6.75
    endloop
  endfacet
  facet normal 0 0 1
    outer loop
      vertex 43.2 33.5 6.75
      vertex 44.0776 32.7725 6.75
      vertex 44.0244 32.9203 6.75
    endloop
  endfacet
  facet normal 0 0 1
    outer loop
      vertex 44.1557 2.03155 6.75
      vertex 43.2 1 6.75
      vertex 44.1215 1.87827 6.75
    endloop
  endfacet
  facet normal 0 0 1
    outer loop
      vertex 43.2 33.5 6.75
      vertex 44.0244 32.9203 6.75
      vertex 43.9621 33.0644 6.75
    endloop
  endfacet
  facet normal 0 0 1
    outer loop
      vertex 44.1215 1.87827 6.75
      vertex 43.2 1 6.75
      vertex 44.0776 1.72746 6.75
    endloop
  endfacet
  facet normal 0 0 1
    outer loop
      vertex 43.2 33.5 6.75
      vertex 43.9621 33.0644 6.75
      vertex 43.8908 33.2044 6.75
    endloop
  endfacet
  facet normal 0 0 1
    outer loop
      vertex 44.0776 1.72746 6.75
      vertex 43.2 1 6.75
      vertex 44.0244 1.57969 6.75
    endloop
  endfacet
  facet normal 0 0 1
    outer loop
      vertex 43.2 33.5 6.75
      vertex 43.8908 33.2044 6.75
      vertex 43.8108 33.3396 6.75
    endloop
  endfacet
  facet normal 0 0 1
    outer loop
      vertex 44.0244 1.57969 6.75
      vertex 43.2 1 6.75
      vertex 43.9621 1.43555 6.75
    endloop
  endfacet
  facet normal 0 0 1
    outer loop
      vertex 43.2 33.5 6.75
      vertex 43.8108 33.3396 6.75
      vertex 43.7225 33.4695 6.75
    endloop
  endfacet
  facet normal 0 0 1
    outer loop
      vertex 43.9621 1.43555 6.75
      vertex 43.2 1 6.75
      vertex 43.8908 1.29562 6.75
    endloop
  endfacet
  facet normal -0 0 1
    outer loop
      vertex 43.2 33.5 6.75
      vertex 43.7225 33.4695 6.75
      vertex 43.6263 33.5936 6.75
    endloop
  endfacet
  facet normal 0 0 1
    outer loop
      vertex 43.8908 1.29562 6.75
      vertex 43.2 1 6.75
      vertex 43.8108 1.16043 6.75
    endloop
  endfacet
  facet normal 0 0 1
    outer loop
      vertex 43.2 33.5 6.75
      vertex 43.6263 33.5936 6.75
      vertex 43.5224 33.7114 6.75
    endloop
  endfacet
  facet normal 0 0 1
    outer loop
      vertex 43.8108 1.16043 6.75
      vertex 43.2 1 6.75
      vertex 43.7225 1.03054 6.75
    endloop
  endfacet
  facet normal 0 0 1
    outer loop
      vertex 43.2 33.5 6.75
      vertex 43.5224 33.7114 6.75
      vertex 43.4114 33.8224 6.75
    endloop
  endfacet
  facet normal 0 0 1
    outer loop
      vertex 43.7225 1.03054 6.75
      vertex 43.2 1 6.75
      vertex 43.6263 0.90644 6.75
    endloop
  endfacet
  facet normal 0 0 1
    outer loop
      vertex 43.2 33.5 6.75
      vertex 43.4114 33.8224 6.75
      vertex 43.2936 33.9263 6.75
    endloop
  endfacet
  facet normal 0 0 1
    outer loop
      vertex 43.6263 0.90644 6.75
      vertex 43.2 1 6.75
      vertex 43.5224 0.788631 6.75
    endloop
  endfacet
  facet normal 0 0 1
    outer loop
      vertex 43.5224 0.788631 6.75
      vertex 43.2 1 6.75
      vertex 43.4114 0.677578 6.75
    endloop
  endfacet
  facet normal 0 0 1
    outer loop
      vertex 43.1695 34.0225 6.75
      vertex 43.2 33.5 6.75
      vertex 43.2936 33.9263 6.75
    endloop
  endfacet
  facet normal 0 0 1
    outer loop
      vertex 43.0396 34.1108 6.75
      vertex 43.2 33.5 6.75
      vertex 43.1695 34.0225 6.75
    endloop
  endfacet
  facet normal 0 0 1
    outer loop
      vertex 42.9044 34.1908 6.75
      vertex 43.2 33.5 6.75
      vertex 43.0396 34.1108 6.75
    endloop
  endfacet
  facet normal 0 0 1
    outer loop
      vertex 42.7645 34.2621 6.75
      vertex 43.2 33.5 6.75
      vertex 42.9044 34.1908 6.75
    endloop
  endfacet
  facet normal 0 0 1
    outer loop
      vertex 42.6203 34.3244 6.75
      vertex 43.2 33.5 6.75
      vertex 42.7645 34.2621 6.75
    endloop
  endfacet
  facet normal 0 0 1
    outer loop
      vertex 42.4725 34.3776 6.75
      vertex 43.2 33.5 6.75
      vertex 42.6203 34.3244 6.75
    endloop
  endfacet
  facet normal 0 0 1
    outer loop
      vertex 42.3217 34.4215 6.75
      vertex 43.2 33.5 6.75
      vertex 42.4725 34.3776 6.75
    endloop
  endfacet
  facet normal 0 0 1
    outer loop
      vertex 42.1685 34.4557 6.75
      vertex 43.2 33.5 6.75
      vertex 42.3217 34.4215 6.75
    endloop
  endfacet
  facet normal 0 0 1
    outer loop
      vertex 42.0133 34.4803 6.75
      vertex 43.2 33.5 6.75
      vertex 42.1685 34.4557 6.75
    endloop
  endfacet
  facet normal 0 0 1
    outer loop
      vertex 41.857 34.4951 6.75
      vertex 43.2 33.5 6.75
      vertex 42.0133 34.4803 6.75
    endloop
  endfacet
  facet normal 0 0 1
    outer loop
      vertex 41.7 34.5 6.75
      vertex 43.2 33.5 6.75
      vertex 41.857 34.4951 6.75
    endloop
  endfacet
  facet normal -0 0 1
    outer loop
      vertex 2.5 34.5 6.75
      vertex 43.2 33.5 6.75
      vertex 41.7 34.5 6.75
    endloop
  endfacet
  facet normal 0 0 1
    outer loop
      vertex 1 33.5 6.75
      vertex 2.5 34.5 6.75
      vertex 2.34302 34.4951 6.75
    endloop
  endfacet
  facet normal 0 0 1
    outer loop
      vertex 1 33.5 6.75
      vertex 2.34302 34.4951 6.75
      vertex 2.18667 34.4803 6.75
    endloop
  endfacet
  facet normal 0 0 1
    outer loop
      vertex 1 33.5 6.75
      vertex 2.18667 34.4803 6.75
      vertex 2.03155 34.4557 6.75
    endloop
  endfacet
  facet normal 0 0 1
    outer loop
      vertex 1 33.5 6.75
      vertex 2.03155 34.4557 6.75
      vertex 1.87827 34.4215 6.75
    endloop
  endfacet
  facet normal 0 0 1
    outer loop
      vertex 1 33.5 6.75
      vertex 1.87827 34.4215 6.75
      vertex 1.72746 34.3776 6.75
    endloop
  endfacet
  facet normal 0 0 1
    outer loop
      vertex 1 33.5 6.75
      vertex 1.72746 34.3776 6.75
      vertex 1.57969 34.3244 6.75
    endloop
  endfacet
  facet normal 0 0 1
    outer loop
      vertex 1 33.5 6.75
      vertex 1.57969 34.3244 6.75
      vertex 1.43555 34.2621 6.75
    endloop
  endfacet
  facet normal 0 0 1
    outer loop
      vertex 1 33.5 6.75
      vertex 1.43555 34.2621 6.75
      vertex 1.29562 34.1908 6.75
    endloop
  endfacet
  facet normal 0 0 1
    outer loop
      vertex 1 33.5 6.75
      vertex 1.29562 34.1908 6.75
      vertex 1.16043 34.1108 6.75
    endloop
  endfacet
  facet normal 0 0 1
    outer loop
      vertex 1 33.5 6.75
      vertex 1.16043 34.1108 6.75
      vertex 1.03054 34.0225 6.75
    endloop
  endfacet
  facet normal 0 0 1
    outer loop
      vertex 2.5 34.5 6.75
      vertex 1 33.5 6.75
      vertex 43.2 33.5 6.75
    endloop
  endfacet
  facet normal -0 0 1
    outer loop
      vertex 0.788631 33.8224 6.75
      vertex 1 33.5 6.75
      vertex 0.90644 33.9263 6.75
    endloop
  endfacet
  facet normal -0 0 1
    outer loop
      vertex 0.90644 33.9263 6.75
      vertex 1 33.5 6.75
      vertex 1.03054 34.0225 6.75
    endloop
  endfacet
  facet normal 0 0 1
    outer loop
      vertex 43.4114 0.677578 6.75
      vertex 43.2 1 6.75
      vertex 43.2936 0.573716 6.75
    endloop
  endfacet
  facet normal 0 0 1
    outer loop
      vertex 43.2 1 6.75
      vertex 43.1695 0.477457 6.75
      vertex 43.2936 0.573716 6.75
    endloop
  endfacet
  facet normal 0 0 1
    outer loop
      vertex 43.2 1 6.75
      vertex 43.0396 0.38918 6.75
      vertex 43.1695 0.477457 6.75
    endloop
  endfacet
  facet normal 0 0 1
    outer loop
      vertex 43.2 1 6.75
      vertex 42.9044 0.309233 6.75
      vertex 43.0396 0.38918 6.75
    endloop
  endfacet
  facet normal 0 0 1
    outer loop
      vertex 43.2 1 6.75
      vertex 42.7645 0.237932 6.75
      vertex 42.9044 0.309233 6.75
    endloop
  endfacet
  facet normal 0 0 1
    outer loop
      vertex 43.2 1 6.75
      vertex 42.6203 0.175558 6.75
      vertex 42.7645 0.237932 6.75
    endloop
  endfacet
  facet normal 0 0 1
    outer loop
      vertex 43.2 1 6.75
      vertex 42.4725 0.122358 6.75
      vertex 42.6203 0.175558 6.75
    endloop
  endfacet
  facet normal 0 0 1
    outer loop
      vertex 43.2 1 6.75
      vertex 42.3217 0.0785418 6.75
      vertex 42.4725 0.122358 6.75
    endloop
  endfacet
  facet normal 0 0 1
    outer loop
      vertex 43.2 1 6.75
      vertex 42.1685 0.044281 6.75
      vertex 42.3217 0.0785418 6.75
    endloop
  endfacet
  facet normal 0 0 1
    outer loop
      vertex 43.2 1 6.75
      vertex 42.0133 0.0197124 6.75
      vertex 42.1685 0.044281 6.75
    endloop
  endfacet
  facet normal 0 0 1
    outer loop
      vertex 43.2 1 6.75
      vertex 41.857 0.0049324 6.75
      vertex 42.0133 0.0197124 6.75
    endloop
  endfacet
  facet normal 0 0 1
    outer loop
      vertex 43.2 1 6.75
      vertex 41.7 0 6.75
      vertex 41.857 0.0049324 6.75
    endloop
  endfacet
  facet normal 0 0 1
    outer loop
      vertex 43.2 1 6.75
      vertex 2.5 0 6.75
      vertex 41.7 0 6.75
    endloop
  endfacet
  facet normal -0 0 1
    outer loop
      vertex 1 1 6.75
      vertex 2.5 0 6.75
      vertex 43.2 1 6.75
    endloop
  endfacet
  facet normal 0 0 1
    outer loop
      vertex 2.5 0 6.75
      vertex 1 1 6.75
      vertex 2.34302 0.0049324 6.75
    endloop
  endfacet
  facet normal 0 0 1
    outer loop
      vertex 2.34302 0.0049324 6.75
      vertex 1 1 6.75
      vertex 2.18667 0.0197124 6.75
    endloop
  endfacet
  facet normal 0 0 1
    outer loop
      vertex 2.18667 0.0197124 6.75
      vertex 1 1 6.75
      vertex 2.03155 0.044281 6.75
    endloop
  endfacet
  facet normal 0 0 1
    outer loop
      vertex 2.03155 0.044281 6.75
      vertex 1 1 6.75
      vertex 1.87827 0.0785418 6.75
    endloop
  endfacet
  facet normal 0 0 1
    outer loop
      vertex 1.87827 0.0785418 6.75
      vertex 1 1 6.75
      vertex 1.72746 0.122358 6.75
    endloop
  endfacet
  facet normal 0 0 1
    outer loop
      vertex 1.72746 0.122358 6.75
      vertex 1 1 6.75
      vertex 1.57969 0.175558 6.75
    endloop
  endfacet
  facet normal 0 0 1
    outer loop
      vertex 1.57969 0.175558 6.75
      vertex 1 1 6.75
      vertex 1.43555 0.237932 6.75
    endloop
  endfacet
  facet normal 0 0 1
    outer loop
      vertex 1.43555 0.237932 6.75
      vertex 1 1 6.75
      vertex 1.29562 0.309233 6.75
    endloop
  endfacet
  facet normal 0 0 1
    outer loop
      vertex 1.29562 0.309233 6.75
      vertex 1 1 6.75
      vertex 1.16043 0.38918 6.75
    endloop
  endfacet
  facet normal 0 0 1
    outer loop
      vertex 1.16043 0.38918 6.75
      vertex 1 1 6.75
      vertex 1.03054 0.477457 6.75
    endloop
  endfacet
  facet normal 0 0 1
    outer loop
      vertex 1 1 6.75
      vertex 0.90644 0.573716 6.75
      vertex 1.03054 0.477457 6.75
    endloop
  endfacet
  facet normal 0 0 1
    outer loop
      vertex 1 33.5 6.75
      vertex 0 32 6.75
      vertex 1 1 6.75
    endloop
  endfacet
  facet normal -0 0 1
    outer loop
      vertex 0.677578 33.7114 6.75
      vertex 1 33.5 6.75
      vertex 0.788631 33.8224 6.75
    endloop
  endfacet
  facet normal -0 0 1
    outer loop
      vertex 0 2.5 6.75
      vertex 1 1 6.75
      vertex 0 32 6.75
    endloop
  endfacet
  facet normal -0 0 1
    outer loop
      vertex 0.573716 33.5936 6.75
      vertex 1 33.5 6.75
      vertex 0.677578 33.7114 6.75
    endloop
  endfacet
  facet normal -0 -0 1
    outer loop
      vertex 0.0049324 2.34302 6.75
      vertex 1 1 6.75
      vertex 0 2.5 6.75
    endloop
  endfacet
  facet normal 0 0 1
    outer loop
      vertex 0.477457 33.4695 6.75
      vertex 1 33.5 6.75
      vertex 0.573716 33.5936 6.75
    endloop
  endfacet
  facet normal 0 0 1
    outer loop
      vertex 1 1 6.75
      vertex 0.788631 0.677578 6.75
      vertex 0.90644 0.573716 6.75
    endloop
  endfacet
  facet normal 0 0 1
    outer loop
      vertex 0.38918 33.3396 6.75
      vertex 1 33.5 6.75
      vertex 0.477457 33.4695 6.75
    endloop
  endfacet
  facet normal 0 0 1
    outer loop
      vertex 1 1 6.75
      vertex 0.677578 0.788631 6.75
      vertex 0.788631 0.677578 6.75
    endloop
  endfacet
  facet normal 0 0 1
    outer loop
      vertex 0.309233 33.2044 6.75
      vertex 1 33.5 6.75
      vertex 0.38918 33.3396 6.75
    endloop
  endfacet
  facet normal 0 0 1
    outer loop
      vertex 1 1 6.75
      vertex 0.573716 0.90644 6.75
      vertex 0.677578 0.788631 6.75
    endloop
  endfacet
  facet normal 0 0 1
    outer loop
      vertex 0.237932 33.0644 6.75
      vertex 1 33.5 6.75
      vertex 0.309233 33.2044 6.75
    endloop
  endfacet
  facet normal 0 0 1
    outer loop
      vertex 1 1 6.75
      vertex 0.477457 1.03054 6.75
      vertex 0.573716 0.90644 6.75
    endloop
  endfacet
  facet normal 0 0 1
    outer loop
      vertex 0.175558 32.9203 6.75
      vertex 1 33.5 6.75
      vertex 0.237932 33.0644 6.75
    endloop
  endfacet
  facet normal 0 0 1
    outer loop
      vertex 1 1 6.75
      vertex 0.38918 1.16043 6.75
      vertex 0.477457 1.03054 6.75
    endloop
  endfacet
  facet normal 0 0 1
    outer loop
      vertex 0.122358 32.7725 6.75
      vertex 1 33.5 6.75
      vertex 0.175558 32.9203 6.75
    endloop
  endfacet
  facet normal 0 0 1
    outer loop
      vertex 1 1 6.75
      vertex 0.309233 1.29562 6.75
      vertex 0.38918 1.16043 6.75
    endloop
  endfacet
  facet normal 0 0 1
    outer loop
      vertex 0.0785418 32.6217 6.75
      vertex 1 33.5 6.75
      vertex 0.122358 32.7725 6.75
    endloop
  endfacet
  facet normal 0 0 1
    outer loop
      vertex 1 1 6.75
      vertex 0.237932 1.43555 6.75
      vertex 0.309233 1.29562 6.75
    endloop
  endfacet
  facet normal 0 0 1
    outer loop
      vertex 0.044281 32.4685 6.75
      vertex 1 33.5 6.75
      vertex 0.0785418 32.6217 6.75
    endloop
  endfacet
  facet normal 0 0 1
    outer loop
      vertex 1 1 6.75
      vertex 0.175558 1.57969 6.75
      vertex 0.237932 1.43555 6.75
    endloop
  endfacet
  facet normal 0 0 1
    outer loop
      vertex 0.0197124 32.3133 6.75
      vertex 1 33.5 6.75
      vertex 0.044281 32.4685 6.75
    endloop
  endfacet
  facet normal 0 0 1
    outer loop
      vertex 1 1 6.75
      vertex 0.122358 1.72746 6.75
      vertex 0.175558 1.57969 6.75
    endloop
  endfacet
  facet normal 0 0 1
    outer loop
      vertex 0.0049324 32.157 6.75
      vertex 1 33.5 6.75
      vertex 0.0197124 32.3133 6.75
    endloop
  endfacet
  facet normal 0 0 1
    outer loop
      vertex 1 1 6.75
      vertex 0.0785418 1.87827 6.75
      vertex 0.122358 1.72746 6.75
    endloop
  endfacet
  facet normal 0 0 1
    outer loop
      vertex 1 33.5 6.75
      vertex 0.0049324 32.157 6.75
      vertex 0 32 6.75
    endloop
  endfacet
  facet normal 0 0 1
    outer loop
      vertex 1 1 6.75
      vertex 0.044281 2.03155 6.75
      vertex 0.0785418 1.87827 6.75
    endloop
  endfacet
  facet normal 0 0 1
    outer loop
      vertex 1 1 6.75
      vertex 0.0197124 2.18667 6.75
      vertex 0.044281 2.03155 6.75
    endloop
  endfacet
  facet normal 0 0 1
    outer loop
      vertex 1 1 6.75
      vertex 0.0049324 2.34302 6.75
      vertex 0.0197124 2.18667 6.75
    endloop
  endfacet
  facet normal 0 -1 0
    outer loop
      vertex 1 1 6.75
      vertex 43.2 1 8.75
      vertex 1 1 8.75
    endloop
  endfacet
  facet normal 0 -1 -0
    outer loop
      vertex 43.2 1 8.75
      vertex 1 1 6.75
      vertex 43.2 1 6.75
    endloop
  endfacet
  facet normal 1 -0 0
    outer loop
      vertex 1.5 1.5 8.75
      vertex 1.5 33 1.5
      vertex 1.5 33 8.75
    endloop
  endfacet
  facet normal 1 0 0
    outer loop
      vertex 1.5 33 1.5
      vertex 1.5 1.5 8.75
      vertex 1.5 1.5 1.5
    endloop
  endfacet
  facet normal -1 0 0
    outer loop
      vertex 42.7 1.5 1.5
      vertex 42.7 33 8.75
      vertex 42.7 33 1.5
    endloop
  endfacet
  facet normal -1 -0 0
    outer loop
      vertex 42.7 33 8.75
      vertex 42.7 1.5 1.5
      vertex 42.7 1.5 8.75
    endloop
  endfacet
  facet normal 0 -1 0
    outer loop
      vertex 1.5 33 1.5
      vertex 42.7 33 8.75
      vertex 1.5 33 8.75
    endloop
  endfacet
  facet normal 0 -1 -0
    outer loop
      vertex 42.7 33 8.75
      vertex 1.5 33 1.5
      vertex 42.7 33 1.5
    endloop
  endfacet
  facet normal 0 1 -0
    outer loop
      vertex 42.7 1.5 1.5
      vertex 1.5 1.5 8.75
      vertex 42.7 1.5 8.75
    endloop
  endfacet
  facet normal 0 1 0
    outer loop
      vertex 1.5 1.5 8.75
      vertex 42.7 1.5 1.5
      vertex 1.5 1.5 1.5
    endloop
  endfacet
  facet normal -1 0 0
    outer loop
      vertex 0 2.5 0
      vertex 0 32 6.75
      vertex 0 32 0
    endloop
  endfacet
  facet normal -1 -0 0
    outer loop
      vertex 0 32 6.75
      vertex 0 2.5 0
      vertex 0 2.5 6.75
    endloop
  endfacet
  facet normal -0.0941082 -0.995562 0
    outer loop
      vertex 2.18667 0.0197124 0
      vertex 2.34302 0.0049324 6.75
      vertex 2.18667 0.0197124 6.75
    endloop
  endfacet
  facet normal -0.0941082 -0.995562 -0
    outer loop
      vertex 2.34302 0.0049324 6.75
      vertex 2.18667 0.0197124 0
      vertex 2.34302 0.0049324 0
    endloop
  endfacet
  facet normal -0.995562 0.0941082 0
    outer loop
      vertex 0.0049324 32.157 0
      vertex 0.0197124 32.3133 6.75
      vertex 0.0197124 32.3133 0
    endloop
  endfacet
  facet normal -0.995562 0.0941082 0
    outer loop
      vertex 0.0197124 32.3133 6.75
      vertex 0.0049324 32.157 0
      vertex 0.0049324 32.157 6.75
    endloop
  endfacet
  facet normal -0.999507 0.0314061 0
    outer loop
      vertex 0 32 0
      vertex 0.0049324 32.157 6.75
      vertex 0.0049324 32.157 0
    endloop
  endfacet
  facet normal -0.999507 0.0314061 0
    outer loop
      vertex 0.0049324 32.157 6.75
      vertex 0 32 0
      vertex 0 32 6.75
    endloop
  endfacet
  facet normal -0.0314057 0.999507 0
    outer loop
      vertex 2.5 34.5 0
      vertex 2.34302 34.4951 6.75
      vertex 2.5 34.5 6.75
    endloop
  endfacet
  facet normal -0.0314057 0.999507 0
    outer loop
      vertex 2.34302 34.4951 6.75
      vertex 2.5 34.5 0
      vertex 2.34302 34.4951 0
    endloop
  endfacet
  facet normal 0.612897 0.790162 -0
    outer loop
      vertex 43.2936 33.9263 0
      vertex 43.1695 34.0225 6.75
      vertex 43.2936 33.9263 6.75
    endloop
  endfacet
  facet normal 0.612897 0.790162 0
    outer loop
      vertex 43.1695 34.0225 6.75
      vertex 43.2936 33.9263 0
      vertex 43.1695 34.0225 0
    endloop
  endfacet
  facet normal 0.0314061 -0.999507 0
    outer loop
      vertex 41.7 0 0
      vertex 41.857 0.0049324 6.75
      vertex 41.7 0 6.75
    endloop
  endfacet
  facet normal 0.0314061 -0.999507 0
    outer loop
      vertex 41.857 0.0049324 6.75
      vertex 41.7 0 0
      vertex 41.857 0.0049324 0
    endloop
  endfacet
  facet normal -0.0314059 -0.999507 0
    outer loop
      vertex 2.34302 0.0049324 0
      vertex 2.5 0 6.75
      vertex 2.34302 0.0049324 6.75
    endloop
  endfacet
  facet normal -0.0314059 -0.999507 -0
    outer loop
      vertex 2.5 0 6.75
      vertex 2.34302 0.0049324 0
      vertex 2.5 0 0
    endloop
  endfacet
  facet normal 0 0 -1
    outer loop
      vertex 41.7 0 0
      vertex 44.2 2.5 0
      vertex 44.1951 2.34302 0
    endloop
  endfacet
  facet normal -0 0 -1
    outer loop
      vertex 44.2 2.5 0
      vertex 41.7 0 0
      vertex 44.2 32 0
    endloop
  endfacet
  facet normal 0 0 -1
    outer loop
      vertex 41.7 0 0
      vertex 44.1951 2.34302 0
      vertex 44.1803 2.18667 0
    endloop
  endfacet
  facet normal 0 0 -1
    outer loop
      vertex 41.7 34.5 0
      vertex 44.2 32 0
      vertex 41.7 0 0
    endloop
  endfacet
  facet normal 0 0 -1
    outer loop
      vertex 41.7 0 0
      vertex 44.1803 2.18667 0
      vertex 44.1557 2.03155 0
    endloop
  endfacet
  facet normal 0 0 -1
    outer loop
      vertex 44.2 32 0
      vertex 41.7 34.5 0
      vertex 44.1951 32.157 0
    endloop
  endfacet
  facet normal 0 0 -1
    outer loop
      vertex 41.7 0 0
      vertex 44.1557 2.03155 0
      vertex 44.1215 1.87827 0
    endloop
  endfacet
  facet normal 0 0 -1
    outer loop
      vertex 44.1951 32.157 0
      vertex 41.7 34.5 0
      vertex 44.1803 32.3133 0
    endloop
  endfacet
  facet normal 0 0 -1
    outer loop
      vertex 41.7 0 0
      vertex 44.1215 1.87827 0
      vertex 44.0776 1.72746 0
    endloop
  endfacet
  facet normal 0 0 -1
    outer loop
      vertex 44.1803 32.3133 0
      vertex 41.7 34.5 0
      vertex 44.1557 32.4685 0
    endloop
  endfacet
  facet normal 0 0 -1
    outer loop
      vertex 41.7 0 0
      vertex 44.0776 1.72746 0
      vertex 44.0244 1.57969 0
    endloop
  endfacet
  facet normal 0 0 -1
    outer loop
      vertex 44.1557 32.4685 0
      vertex 41.7 34.5 0
      vertex 44.1215 32.6217 0
    endloop
  endfacet
  facet normal 0 0 -1
    outer loop
      vertex 41.7 0 0
      vertex 44.0244 1.57969 0
      vertex 43.9621 1.43555 0
    endloop
  endfacet
  facet normal 0 0 -1
    outer loop
      vertex 44.1215 32.6217 0
      vertex 41.7 34.5 0
      vertex 44.0776 32.7725 0
    endloop
  endfacet
  facet normal 0 0 -1
    outer loop
      vertex 41.7 0 0
      vertex 43.9621 1.43555 0
      vertex 43.8908 1.29562 0
    endloop
  endfacet
  facet normal 0 0 -1
    outer loop
      vertex 44.0776 32.7725 0
      vertex 41.7 34.5 0
      vertex 44.0244 32.9203 0
    endloop
  endfacet
  facet normal 0 0 -1
    outer loop
      vertex 41.7 0 0
      vertex 43.8908 1.29562 0
      vertex 43.8108 1.16043 0
    endloop
  endfacet
  facet normal 0 0 -1
    outer loop
      vertex 44.0244 32.9203 0
      vertex 41.7 34.5 0
      vertex 43.9621 33.0644 0
    endloop
  endfacet
  facet normal 0 0 -1
    outer loop
      vertex 41.7 0 0
      vertex 43.8108 1.16043 0
      vertex 43.7225 1.03054 0
    endloop
  endfacet
  facet normal 0 0 -1
    outer loop
      vertex 43.9621 33.0644 0
      vertex 41.7 34.5 0
      vertex 43.8908 33.2044 0
    endloop
  endfacet
  facet normal 0 0 -1
    outer loop
      vertex 41.7 0 0
      vertex 43.7225 1.03054 0
      vertex 43.6263 0.90644 0
    endloop
  endfacet
  facet normal 0 0 -1
    outer loop
      vertex 43.8908 33.2044 0
      vertex 41.7 34.5 0
      vertex 43.8108 33.3396 0
    endloop
  endfacet
  facet normal 0 0 -1
    outer loop
      vertex 41.7 0 0
      vertex 43.6263 0.90644 0
      vertex 43.5224 0.788631 0
    endloop
  endfacet
  facet normal 0 0 -1
    outer loop
      vertex 43.8108 33.3396 0
      vertex 41.7 34.5 0
      vertex 43.7225 33.4695 0
    endloop
  endfacet
  facet normal 0 0 -1
    outer loop
      vertex 41.7 0 0
      vertex 43.5224 0.788631 0
      vertex 43.4114 0.677578 0
    endloop
  endfacet
  facet normal 0 0 -1
    outer loop
      vertex 43.7225 33.4695 0
      vertex 41.7 34.5 0
      vertex 43.6263 33.5936 0
    endloop
  endfacet
  facet normal 0 0 -1
    outer loop
      vertex 41.7 0 0
      vertex 43.4114 0.677578 0
      vertex 43.2936 0.573716 0
    endloop
  endfacet
  facet normal 0 0 -1
    outer loop
      vertex 43.6263 33.5936 0
      vertex 41.7 34.5 0
      vertex 43.5224 33.7114 0
    endloop
  endfacet
  facet normal 0 0 -1
    outer loop
      vertex 41.7 0 0
      vertex 43.2936 0.573716 0
      vertex 43.1695 0.477457 0
    endloop
  endfacet
  facet normal 0 0 -1
    outer loop
      vertex 43.5224 33.7114 0
      vertex 41.7 34.5 0
      vertex 43.4114 33.8224 0
    endloop
  endfacet
  facet normal 0 0 -1
    outer loop
      vertex 41.7 0 0
      vertex 43.1695 0.477457 0
      vertex 43.0396 0.38918 0
    endloop
  endfacet
  facet normal 0 0 -1
    outer loop
      vertex 43.4114 33.8224 0
      vertex 41.7 34.5 0
      vertex 43.2936 33.9263 0
    endloop
  endfacet
  facet normal 0 0 -1
    outer loop
      vertex 41.7 0 0
      vertex 43.0396 0.38918 0
      vertex 42.9044 0.309233 0
    endloop
  endfacet
  facet normal 0 0 -1
    outer loop
      vertex 43.2936 33.9263 0
      vertex 41.7 34.5 0
      vertex 43.1695 34.0225 0
    endloop
  endfacet
  facet normal 0 0 -1
    outer loop
      vertex 41.7 0 0
      vertex 42.9044 0.309233 0
      vertex 42.7645 0.237932 0
    endloop
  endfacet
  facet normal 0 0 -1
    outer loop
      vertex 43.1695 34.0225 0
      vertex 41.7 34.5 0
      vertex 43.0396 34.1108 0
    endloop
  endfacet
  facet normal 0 0 -1
    outer loop
      vertex 41.7 0 0
      vertex 42.7645 0.237932 0
      vertex 42.6203 0.175558 0
    endloop
  endfacet
  facet normal 0 0 -1
    outer loop
      vertex 43.0396 34.1108 0
      vertex 41.7 34.5 0
      vertex 42.9044 34.1908 0
    endloop
  endfacet
  facet normal 0 0 -1
    outer loop
      vertex 41.7 0 0
      vertex 42.6203 0.175558 0
      vertex 42.4725 0.122358 0
    endloop
  endfacet
  facet normal 0 0 -1
    outer loop
      vertex 42.9044 34.1908 0
      vertex 41.7 34.5 0
      vertex 42.7645 34.2621 0
    endloop
  endfacet
  facet normal 0 0 -1
    outer loop
      vertex 41.7 0 0
      vertex 42.4725 0.122358 0
      vertex 42.3217 0.0785418 0
    endloop
  endfacet
  facet normal 0 0 -1
    outer loop
      vertex 42.7645 34.2621 0
      vertex 41.7 34.5 0
      vertex 42.6203 34.3244 0
    endloop
  endfacet
  facet normal 0 0 -1
    outer loop
      vertex 41.7 0 0
      vertex 42.3217 0.0785418 0
      vertex 42.1685 0.044281 0
    endloop
  endfacet
  facet normal 0 0 -1
    outer loop
      vertex 42.6203 34.3244 0
      vertex 41.7 34.5 0
      vertex 42.4725 34.3776 0
    endloop
  endfacet
  facet normal 0 0 -1
    outer loop
      vertex 41.7 0 0
      vertex 42.1685 0.044281 0
      vertex 42.0133 0.0197124 0
    endloop
  endfacet
  facet normal 0 0 -1
    outer loop
      vertex 42.4725 34.3776 0
      vertex 41.7 34.5 0
      vertex 42.3217 34.4215 0
    endloop
  endfacet
  facet normal 0 0 -1
    outer loop
      vertex 41.7 0 0
      vertex 42.0133 0.0197124 0
      vertex 41.857 0.0049324 0
    endloop
  endfacet
  facet normal 0 0 -1
    outer loop
      vertex 42.3217 34.4215 0
      vertex 41.7 34.5 0
      vertex 42.1685 34.4557 0
    endloop
  endfacet
  facet normal 0 0 -1
    outer loop
      vertex 42.1685 34.4557 0
      vertex 41.7 34.5 0
      vertex 42.0133 34.4803 0
    endloop
  endfacet
  facet normal 0 0 -1
    outer loop
      vertex 42.0133 34.4803 0
      vertex 41.7 34.5 0
      vertex 41.857 34.4951 0
    endloop
  endfacet
  facet normal 0 0 -1
    outer loop
      vertex 41.7 0 0
      vertex 2.5 34.5 0
      vertex 41.7 34.5 0
    endloop
  endfacet
  facet normal 0 0 -1
    outer loop
      vertex 2.5 0 0
      vertex 2.5 34.5 0
      vertex 41.7 0 0
    endloop
  endfacet
  facet normal 0 0 -1
    outer loop
      vertex 0 2.5 0
      vertex 2.5 0 0
      vertex 2.34302 0.0049324 0
    endloop
  endfacet
  facet normal 0 0 -1
    outer loop
      vertex 2.5 0 0
      vertex 0 2.5 0
      vertex 2.5 34.5 0
    endloop
  endfacet
  facet normal 0 0 -1
    outer loop
      vertex 0 2.5 0
      vertex 2.34302 0.0049324 0
      vertex 2.18667 0.0197124 0
    endloop
  endfacet
  facet normal 0 0 -1
    outer loop
      vertex 0 32 0
      vertex 2.5 34.5 0
      vertex 0 2.5 0
    endloop
  endfacet
  facet normal 0 0 -1
    outer loop
      vertex 0 2.5 0
      vertex 2.18667 0.0197124 0
      vertex 2.03155 0.044281 0
    endloop
  endfacet
  facet normal 0 0 -1
    outer loop
      vertex 2.5 34.5 0
      vertex 0 32 0
      vertex 2.34302 34.4951 0
    endloop
  endfacet
  facet normal 0 0 -1
    outer loop
      vertex 0 2.5 0
      vertex 2.03155 0.044281 0
      vertex 1.87827 0.0785418 0
    endloop
  endfacet
  facet normal 0 0 -1
    outer loop
      vertex 2.34302 34.4951 0
      vertex 0 32 0
      vertex 2.18667 34.4803 0
    endloop
  endfacet
  facet normal 0 0 -1
    outer loop
      vertex 0 2.5 0
      vertex 1.87827 0.0785418 0
      vertex 1.72746 0.122358 0
    endloop
  endfacet
  facet normal 0 0 -1
    outer loop
      vertex 2.18667 34.4803 0
      vertex 0 32 0
      vertex 2.03155 34.4557 0
    endloop
  endfacet
  facet normal 0 0 -1
    outer loop
      vertex 0 2.5 0
      vertex 1.72746 0.122358 0
      vertex 1.57969 0.175558 0
    endloop
  endfacet
  facet normal 0 0 -1
    outer loop
      vertex 2.03155 34.4557 0
      vertex 0 32 0
      vertex 1.87827 34.4215 0
    endloop
  endfacet
  facet normal 0 0 -1
    outer loop
      vertex 0 2.5 0
      vertex 1.57969 0.175558 0
      vertex 1.43555 0.237932 0
    endloop
  endfacet
  facet normal 0 0 -1
    outer loop
      vertex 1.87827 34.4215 0
      vertex 0 32 0
      vertex 1.72746 34.3776 0
    endloop
  endfacet
  facet normal 0 0 -1
    outer loop
      vertex 0 2.5 0
      vertex 1.43555 0.237932 0
      vertex 1.29562 0.309233 0
    endloop
  endfacet
  facet normal 0 0 -1
    outer loop
      vertex 1.72746 34.3776 0
      vertex 0 32 0
      vertex 1.57969 34.3244 0
    endloop
  endfacet
  facet normal 0 0 -1
    outer loop
      vertex 0 2.5 0
      vertex 1.29562 0.309233 0
      vertex 1.16043 0.38918 0
    endloop
  endfacet
  facet normal 0 0 -1
    outer loop
      vertex 1.57969 34.3244 0
      vertex 0 32 0
      vertex 1.43555 34.2621 0
    endloop
  endfacet
  facet normal 0 0 -1
    outer loop
      vertex 0 2.5 0
      vertex 1.16043 0.38918 0
      vertex 1.03054 0.477457 0
    endloop
  endfacet
  facet normal 0 0 -1
    outer loop
      vertex 1.43555 34.2621 0
      vertex 0 32 0
      vertex 1.29562 34.1908 0
    endloop
  endfacet
  facet normal 0 0 -1
    outer loop
      vertex 0 2.5 0
      vertex 1.03054 0.477457 0
      vertex 0.90644 0.573716 0
    endloop
  endfacet
  facet normal 0 0 -1
    outer loop
      vertex 1.29562 34.1908 0
      vertex 0 32 0
      vertex 1.16043 34.1108 0
    endloop
  endfacet
  facet normal 0 0 -1
    outer loop
      vertex 0 2.5 0
      vertex 0.90644 0.573716 0
      vertex 0.788631 0.677578 0
    endloop
  endfacet
  facet normal 0 0 -1
    outer loop
      vertex 1.16043 34.1108 0
      vertex 0 32 0
      vertex 1.03054 34.0225 0
    endloop
  endfacet
  facet normal 0 0 -1
    outer loop
      vertex 0 2.5 0
      vertex 0.788631 0.677578 0
      vertex 0.677578 0.788631 0
    endloop
  endfacet
  facet normal 0 0 -1
    outer loop
      vertex 1.03054 34.0225 0
      vertex 0 32 0
      vertex 0.90644 33.9263 0
    endloop
  endfacet
  facet normal 0 0 -1
    outer loop
      vertex 0 2.5 0
      vertex 0.677578 0.788631 0
      vertex 0.573716 0.90644 0
    endloop
  endfacet
  facet normal 0 0 -1
    outer loop
      vertex 0.90644 33.9263 0
      vertex 0 32 0
      vertex 0.788631 33.8224 0
    endloop
  endfacet
  facet normal 0 0 -1
    outer loop
      vertex 0 2.5 0
      vertex 0.573716 0.90644 0
      vertex 0.477457 1.03054 0
    endloop
  endfacet
  facet normal 0 0 -1
    outer loop
      vertex 0.788631 33.8224 0
      vertex 0 32 0
      vertex 0.677578 33.7114 0
    endloop
  endfacet
  facet normal 0 0 -1
    outer loop
      vertex 0 2.5 0
      vertex 0.477457 1.03054 0
      vertex 0.38918 1.16043 0
    endloop
  endfacet
  facet normal 0 0 -1
    outer loop
      vertex 0.677578 33.7114 0
      vertex 0 32 0
      vertex 0.573716 33.5936 0
    endloop
  endfacet
  facet normal 0 0 -1
    outer loop
      vertex 0 2.5 0
      vertex 0.38918 1.16043 0
      vertex 0.309233 1.29562 0
    endloop
  endfacet
  facet normal 0 0 -1
    outer loop
      vertex 0.573716 33.5936 0
      vertex 0 32 0
      vertex 0.477457 33.4695 0
    endloop
  endfacet
  facet normal 0 0 -1
    outer loop
      vertex 0 2.5 0
      vertex 0.309233 1.29562 0
      vertex 0.237932 1.43555 0
    endloop
  endfacet
  facet normal 0 0 -1
    outer loop
      vertex 0.477457 33.4695 0
      vertex 0 32 0
      vertex 0.38918 33.3396 0
    endloop
  endfacet
  facet normal 0 0 -1
    outer loop
      vertex 0 2.5 0
      vertex 0.237932 1.43555 0
      vertex 0.175558 1.57969 0
    endloop
  endfacet
  facet normal 0 0 -1
    outer loop
      vertex 0.38918 33.3396 0
      vertex 0 32 0
      vertex 0.309233 33.2044 0
    endloop
  endfacet
  facet normal 0 0 -1
    outer loop
      vertex 0 2.5 0
      vertex 0.175558 1.57969 0
      vertex 0.122358 1.72746 0
    endloop
  endfacet
  facet normal 0 0 -1
    outer loop
      vertex 0.309233 33.2044 0
      vertex 0 32 0
      vertex 0.237932 33.0644 0
    endloop
  endfacet
  facet normal 0 0 -1
    outer loop
      vertex 0 2.5 0
      vertex 0.122358 1.72746 0
      vertex 0.0785418 1.87827 0
    endloop
  endfacet
  facet normal 0 0 -1
    outer loop
      vertex 0.237932 33.0644 0
      vertex 0 32 0
      vertex 0.175558 32.9203 0
    endloop
  endfacet
  facet normal 0 0 -1
    outer loop
      vertex 0 2.5 0
      vertex 0.0785418 1.87827 0
      vertex 0.044281 2.03155 0
    endloop
  endfacet
  facet normal 0 0 -1
    outer loop
      vertex 0.175558 32.9203 0
      vertex 0 32 0
      vertex 0.122358 32.7725 0
    endloop
  endfacet
  facet normal 0 0 -1
    outer loop
      vertex 0 2.5 0
      vertex 0.044281 2.03155 0
      vertex 0.0197124 2.18667 0
    endloop
  endfacet
  facet normal 0 0 -1
    outer loop
      vertex 0.122358 32.7725 0
      vertex 0 32 0
      vertex 0.0785418 32.6217 0
    endloop
  endfacet
  facet normal 0 0 -1
    outer loop
      vertex 0 2.5 0
      vertex 0.0197124 2.18667 0
      vertex 0.0049324 2.34302 0
    endloop
  endfacet
  facet normal 0 0 -1
    outer loop
      vertex 0.0785418 32.6217 0
      vertex 0 32 0
      vertex 0.044281 32.4685 0
    endloop
  endfacet
  facet normal 0 0 -1
    outer loop
      vertex 0.044281 32.4685 0
      vertex 0 32 0
      vertex 0.0197124 32.3133 0
    endloop
  endfacet
  facet normal 0 0 -1
    outer loop
      vertex 0.0197124 32.3133 0
      vertex 0 32 0
      vertex 0.0049324 32.157 0
    endloop
  endfacet
  facet normal -0.917751 0.397156 0
    outer loop
      vertex 0.175558 32.9203 0
      vertex 0.237932 33.0644 6.75
      vertex 0.237932 33.0644 0
    endloop
  endfacet
  facet normal -0.917751 0.397156 0
    outer loop
      vertex 0.237932 33.0644 6.75
      vertex 0.175558 32.9203 0
      vertex 0.175558 32.9203 6.75
    endloop
  endfacet
  facet normal -0.790154 0.612909 0
    outer loop
      vertex 0.477457 33.4695 0
      vertex 0.573716 33.5936 6.75
      vertex 0.573716 33.5936 0
    endloop
  endfacet
  facet normal -0.790154 0.612909 0
    outer loop
      vertex 0.573716 33.5936 6.75
      vertex 0.477457 33.4695 0
      vertex 0.477457 33.4695 6.75
    endloop
  endfacet
  facet normal -0.661315 0.750109 0
    outer loop
      vertex 0.90644 33.9263 0
      vertex 0.788631 33.8224 6.75
      vertex 0.90644 33.9263 6.75
    endloop
  endfacet
  facet normal -0.661315 0.750109 0
    outer loop
      vertex 0.788631 33.8224 6.75
      vertex 0.90644 33.9263 0
      vertex 0.788631 33.8224 0
    endloop
  endfacet
  facet normal 0.999507 -0.0314057 0
    outer loop
      vertex 44.1951 2.34302 6.75
      vertex 44.2 2.5 0
      vertex 44.2 2.5 6.75
    endloop
  endfacet
  facet normal 0.999507 -0.0314057 0
    outer loop
      vertex 44.2 2.5 0
      vertex 44.1951 2.34302 6.75
      vertex 44.1951 2.34302 0
    endloop
  endfacet
  facet normal 0.999507 0.0314061 0
    outer loop
      vertex 44.2 32 6.75
      vertex 44.1951 32.157 0
      vertex 44.1951 32.157 6.75
    endloop
  endfacet
  facet normal 0.999507 0.0314061 0
    outer loop
      vertex 44.1951 32.157 0
      vertex 44.2 32 6.75
      vertex 44.2 32 0
    endloop
  endfacet
  facet normal 0.0314061 0.999507 -0
    outer loop
      vertex 41.857 34.4951 0
      vertex 41.7 34.5 6.75
      vertex 41.857 34.4951 6.75
    endloop
  endfacet
  facet normal 0.0314061 0.999507 0
    outer loop
      vertex 41.7 34.5 6.75
      vertex 41.857 34.4951 0
      vertex 41.7 34.5 0
    endloop
  endfacet
  facet normal 0 -1 0
    outer loop
      vertex 2.5 0 0
      vertex 41.7 0 6.75
      vertex 2.5 0 6.75
    endloop
  endfacet
  facet normal 0 -1 -0
    outer loop
      vertex 41.7 0 6.75
      vertex 2.5 0 0
      vertex 41.7 0 0
    endloop
  endfacet
  facet normal 0.612909 -0.790154 0
    outer loop
      vertex 43.1695 0.477457 0
      vertex 43.2936 0.573716 6.75
      vertex 43.1695 0.477457 6.75
    endloop
  endfacet
  facet normal 0.612909 -0.790154 0
    outer loop
      vertex 43.2936 0.573716 6.75
      vertex 43.1695 0.477457 0
      vertex 43.2936 0.573716 0
    endloop
  endfacet
  facet normal -0.278991 -0.960294 0
    outer loop
      vertex 1.72746 0.122358 0
      vertex 1.87827 0.0785418 6.75
      vertex 1.72746 0.122358 6.75
    endloop
  endfacet
  facet normal -0.278991 -0.960294 -0
    outer loop
      vertex 1.87827 0.0785418 6.75
      vertex 1.72746 0.122358 0
      vertex 1.87827 0.0785418 0
    endloop
  endfacet
  facet normal -0.707107 -0.707107 0
    outer loop
      vertex 0.788631 0.677578 0
      vertex 0.677578 0.788631 6.75
      vertex 0.677578 0.788631 0
    endloop
  endfacet
  facet normal -0.707107 -0.707107 0
    outer loop
      vertex 0.677578 0.788631 6.75
      vertex 0.788631 0.677578 0
      vertex 0.788631 0.677578 6.75
    endloop
  endfacet
  facet normal -0.397152 -0.917753 0
    outer loop
      vertex 1.43555 0.237932 0
      vertex 1.57969 0.175558 6.75
      vertex 1.43555 0.237932 6.75
    endloop
  endfacet
  facet normal -0.397152 -0.917753 -0
    outer loop
      vertex 1.57969 0.175558 6.75
      vertex 1.43555 0.237932 0
      vertex 1.57969 0.175558 0
    endloop
  endfacet
  facet normal -0.218146 -0.975916 0
    outer loop
      vertex 1.87827 0.0785418 0
      vertex 2.03155 0.044281 6.75
      vertex 1.87827 0.0785418 6.75
    endloop
  endfacet
  facet normal -0.218146 -0.975916 -0
    outer loop
      vertex 2.03155 0.044281 6.75
      vertex 1.87827 0.0785418 0
      vertex 2.03155 0.044281 0
    endloop
  endfacet
  facet normal -0.827082 -0.562081 0
    outer loop
      vertex 0.477457 1.03054 0
      vertex 0.38918 1.16043 6.75
      vertex 0.38918 1.16043 0
    endloop
  endfacet
  facet normal -0.827082 -0.562081 0
    outer loop
      vertex 0.38918 1.16043 6.75
      vertex 0.477457 1.03054 0
      vertex 0.477457 1.03054 6.75
    endloop
  endfacet
  facet normal -0.987688 -0.156434 0
    outer loop
      vertex 0.044281 2.03155 0
      vertex 0.0197124 2.18667 6.75
      vertex 0.0197124 2.18667 0
    endloop
  endfacet
  facet normal -0.987688 -0.156434 0
    outer loop
      vertex 0.0197124 2.18667 6.75
      vertex 0.044281 2.03155 0
      vertex 0.044281 2.03155 6.75
    endloop
  endfacet
  facet normal -0.999507 -0.0314057 0
    outer loop
      vertex 0.0049324 2.34302 0
      vertex 0 2.5 6.75
      vertex 0 2.5 0
    endloop
  endfacet
  facet normal -0.999507 -0.0314057 0
    outer loop
      vertex 0 2.5 6.75
      vertex 0.0049324 2.34302 0
      vertex 0.0049324 2.34302 6.75
    endloop
  endfacet
  facet normal -0.960294 0.278991 0
    outer loop
      vertex 0.0785418 32.6217 0
      vertex 0.122358 32.7725 6.75
      vertex 0.122358 32.7725 0
    endloop
  endfacet
  facet normal -0.960294 0.278991 0
    outer loop
      vertex 0.122358 32.7725 6.75
      vertex 0.0785418 32.6217 0
      vertex 0.0785418 32.6217 6.75
    endloop
  endfacet
  facet normal -0.940882 0.338734 0
    outer loop
      vertex 0.122358 32.7725 0
      vertex 0.175558 32.9203 6.75
      vertex 0.175558 32.9203 0
    endloop
  endfacet
  facet normal -0.940882 0.338734 0
    outer loop
      vertex 0.175558 32.9203 6.75
      vertex 0.122358 32.7725 0
      vertex 0.122358 32.7725 6.75
    endloop
  endfacet
  facet normal -0.987689 0.156433 0
    outer loop
      vertex 0.0197124 32.3133 0
      vertex 0.044281 32.4685 6.75
      vertex 0.044281 32.4685 0
    endloop
  endfacet
  facet normal -0.987689 0.156433 0
    outer loop
      vertex 0.044281 32.4685 6.75
      vertex 0.0197124 32.3133 0
      vertex 0.0197124 32.3133 6.75
    endloop
  endfacet
  facet normal -0.827086 0.562076 0
    outer loop
      vertex 0.38918 33.3396 0
      vertex 0.477457 33.4695 6.75
      vertex 0.477457 33.4695 0
    endloop
  endfacet
  facet normal -0.827086 0.562076 0
    outer loop
      vertex 0.477457 33.4695 6.75
      vertex 0.38918 33.3396 0
      vertex 0.38918 33.3396 6.75
    endloop
  endfacet
  facet normal -0.860738 0.509048 0
    outer loop
      vertex 0.309233 33.2044 0
      vertex 0.38918 33.3396 6.75
      vertex 0.38918 33.3396 0
    endloop
  endfacet
  facet normal -0.860738 0.509048 0
    outer loop
      vertex 0.38918 33.3396 6.75
      vertex 0.309233 33.2044 0
      vertex 0.309233 33.2044 6.75
    endloop
  endfacet
  facet normal -0.707107 0.707107 0
    outer loop
      vertex 0.677578 33.7114 0
      vertex 0.788631 33.8224 6.75
      vertex 0.788631 33.8224 0
    endloop
  endfacet
  facet normal -0.707107 0.707107 0
    outer loop
      vertex 0.788631 33.8224 6.75
      vertex 0.677578 33.7114 0
      vertex 0.677578 33.7114 6.75
    endloop
  endfacet
  facet normal -0.397152 0.917753 0
    outer loop
      vertex 1.57969 34.3244 0
      vertex 1.43555 34.2621 6.75
      vertex 1.57969 34.3244 6.75
    endloop
  endfacet
  facet normal -0.397152 0.917753 0
    outer loop
      vertex 1.43555 34.2621 6.75
      vertex 1.57969 34.3244 0
      vertex 1.43555 34.2621 0
    endloop
  endfacet
  facet normal -0.218163 0.975912 0
    outer loop
      vertex 2.03155 34.4557 0
      vertex 1.87827 34.4215 6.75
      vertex 2.03155 34.4557 6.75
    endloop
  endfacet
  facet normal -0.218163 0.975912 0
    outer loop
      vertex 1.87827 34.4215 6.75
      vertex 2.03155 34.4557 0
      vertex 1.87827 34.4215 0
    endloop
  endfacet
  facet normal 0.975917 -0.21814 0
    outer loop
      vertex 44.1215 1.87827 6.75
      vertex 44.1557 2.03155 0
      vertex 44.1557 2.03155 6.75
    endloop
  endfacet
  facet normal 0.975917 -0.21814 0
    outer loop
      vertex 44.1557 2.03155 0
      vertex 44.1215 1.87827 6.75
      vertex 44.1215 1.87827 0
    endloop
  endfacet
  facet normal 0 1 -0
    outer loop
      vertex 41.7 34.5 0
      vertex 2.5 34.5 6.75
      vertex 41.7 34.5 6.75
    endloop
  endfacet
  facet normal 0 1 0
    outer loop
      vertex 2.5 34.5 6.75
      vertex 41.7 34.5 0
      vertex 2.5 34.5 0
    endloop
  endfacet
  facet normal 0.453992 0.891006 -0
    outer loop
      vertex 42.9044 34.1908 0
      vertex 42.7645 34.2621 6.75
      vertex 42.9044 34.1908 6.75
    endloop
  endfacet
  facet normal 0.453992 0.891006 0
    outer loop
      vertex 42.7645 34.2621 6.75
      vertex 42.9044 34.1908 0
      vertex 42.7645 34.2621 0
    endloop
  endfacet
  facet normal 0.397147 0.917755 -0
    outer loop
      vertex 42.7645 34.2621 0
      vertex 42.6203 34.3244 6.75
      vertex 42.7645 34.2621 6.75
    endloop
  endfacet
  facet normal 0.397147 0.917755 0
    outer loop
      vertex 42.6203 34.3244 6.75
      vertex 42.7645 34.2621 0
      vertex 42.6203 34.3244 0
    endloop
  endfacet
  facet normal 0.0941082 -0.995562 0
    outer loop
      vertex 41.857 0.0049324 0
      vertex 42.0133 0.0197124 6.75
      vertex 41.857 0.0049324 6.75
    endloop
  endfacet
  facet normal 0.0941082 -0.995562 0
    outer loop
      vertex 42.0133 0.0197124 6.75
      vertex 41.857 0.0049324 0
      vertex 42.0133 0.0197124 0
    endloop
  endfacet
  facet normal -0.661311 -0.750112 0
    outer loop
      vertex 0.788631 0.677578 0
      vertex 0.90644 0.573716 6.75
      vertex 0.788631 0.677578 6.75
    endloop
  endfacet
  facet normal -0.661311 -0.750112 -0
    outer loop
      vertex 0.90644 0.573716 6.75
      vertex 0.788631 0.677578 0
      vertex 0.90644 0.573716 0
    endloop
  endfacet
  facet normal -0.453987 -0.891008 0
    outer loop
      vertex 1.29562 0.309233 0
      vertex 1.43555 0.237932 6.75
      vertex 1.29562 0.309233 6.75
    endloop
  endfacet
  facet normal -0.453987 -0.891008 -0
    outer loop
      vertex 1.43555 0.237932 6.75
      vertex 1.29562 0.309233 0
      vertex 1.43555 0.237932 0
    endloop
  endfacet
  facet normal -0.562081 -0.827082 0
    outer loop
      vertex 1.03054 0.477457 0
      vertex 1.16043 0.38918 6.75
      vertex 1.03054 0.477457 6.75
    endloop
  endfacet
  facet normal -0.562081 -0.827082 -0
    outer loop
      vertex 1.16043 0.38918 6.75
      vertex 1.03054 0.477457 0
      vertex 1.16043 0.38918 0
    endloop
  endfacet
  facet normal -0.338736 -0.940881 0
    outer loop
      vertex 1.57969 0.175558 0
      vertex 1.72746 0.122358 6.75
      vertex 1.57969 0.175558 6.75
    endloop
  endfacet
  facet normal -0.338736 -0.940881 -0
    outer loop
      vertex 1.72746 0.122358 6.75
      vertex 1.57969 0.175558 0
      vertex 1.72746 0.122358 0
    endloop
  endfacet
  facet normal -0.156434 -0.987688 0
    outer loop
      vertex 2.03155 0.044281 0
      vertex 2.18667 0.0197124 6.75
      vertex 2.03155 0.044281 6.75
    endloop
  endfacet
  facet normal -0.156434 -0.987688 -0
    outer loop
      vertex 2.18667 0.0197124 6.75
      vertex 2.03155 0.044281 0
      vertex 2.18667 0.0197124 0
    endloop
  endfacet
  facet normal -0.917753 -0.397152 0
    outer loop
      vertex 0.237932 1.43555 0
      vertex 0.175558 1.57969 6.75
      vertex 0.175558 1.57969 0
    endloop
  endfacet
  facet normal -0.917753 -0.397152 0
    outer loop
      vertex 0.175558 1.57969 6.75
      vertex 0.237932 1.43555 0
      vertex 0.237932 1.43555 6.75
    endloop
  endfacet
  facet normal -0.86074 -0.509045 0
    outer loop
      vertex 0.38918 1.16043 0
      vertex 0.309233 1.29562 6.75
      vertex 0.309233 1.29562 0
    endloop
  endfacet
  facet normal -0.86074 -0.509045 0
    outer loop
      vertex 0.309233 1.29562 6.75
      vertex 0.38918 1.16043 0
      vertex 0.38918 1.16043 6.75
    endloop
  endfacet
  facet normal -0.790156 -0.612906 0
    outer loop
      vertex 0.573716 0.90644 0
      vertex 0.477457 1.03054 6.75
      vertex 0.477457 1.03054 0
    endloop
  endfacet
  facet normal -0.790156 -0.612906 0
    outer loop
      vertex 0.477457 1.03054 6.75
      vertex 0.573716 0.90644 0
      vertex 0.573716 0.90644 6.75
    endloop
  endfacet
  facet normal -0.940881 -0.338736 0
    outer loop
      vertex 0.175558 1.57969 0
      vertex 0.122358 1.72746 6.75
      vertex 0.122358 1.72746 0
    endloop
  endfacet
  facet normal -0.940881 -0.338736 0
    outer loop
      vertex 0.122358 1.72746 6.75
      vertex 0.175558 1.57969 0
      vertex 0.175558 1.57969 6.75
    endloop
  endfacet
  facet normal -0.975916 -0.218146 0
    outer loop
      vertex 0.0785418 1.87827 0
      vertex 0.044281 2.03155 6.75
      vertex 0.044281 2.03155 0
    endloop
  endfacet
  facet normal -0.975916 -0.218146 0
    outer loop
      vertex 0.044281 2.03155 6.75
      vertex 0.0785418 1.87827 0
      vertex 0.0785418 1.87827 6.75
    endloop
  endfacet
  facet normal -0.960294 -0.278991 0
    outer loop
      vertex 0.122358 1.72746 0
      vertex 0.0785418 1.87827 6.75
      vertex 0.0785418 1.87827 0
    endloop
  endfacet
  facet normal -0.960294 -0.278991 0
    outer loop
      vertex 0.0785418 1.87827 6.75
      vertex 0.122358 1.72746 0
      vertex 0.122358 1.72746 6.75
    endloop
  endfacet
  facet normal -0.995562 -0.0941082 0
    outer loop
      vertex 0.0197124 2.18667 0
      vertex 0.0049324 2.34302 6.75
      vertex 0.0049324 2.34302 0
    endloop
  endfacet
  facet normal -0.995562 -0.0941082 0
    outer loop
      vertex 0.0049324 2.34302 6.75
      vertex 0.0197124 2.18667 0
      vertex 0.0197124 2.18667 6.75
    endloop
  endfacet
  facet normal -0.975916 0.218147 0
    outer loop
      vertex 0.044281 32.4685 0
      vertex 0.0785418 32.6217 6.75
      vertex 0.0785418 32.6217 0
    endloop
  endfacet
  facet normal -0.975916 0.218147 0
    outer loop
      vertex 0.0785418 32.6217 6.75
      vertex 0.044281 32.4685 0
      vertex 0.044281 32.4685 6.75
    endloop
  endfacet
  facet normal -0.453987 0.891008 0
    outer loop
      vertex 1.43555 34.2621 0
      vertex 1.29562 34.1908 6.75
      vertex 1.43555 34.2621 6.75
    endloop
  endfacet
  facet normal -0.453987 0.891008 0
    outer loop
      vertex 1.29562 34.1908 6.75
      vertex 1.43555 34.2621 0
      vertex 1.29562 34.1908 0
    endloop
  endfacet
  facet normal -0.156422 0.98769 0
    outer loop
      vertex 2.18667 34.4803 0
      vertex 2.03155 34.4557 6.75
      vertex 2.18667 34.4803 6.75
    endloop
  endfacet
  facet normal -0.156422 0.98769 0
    outer loop
      vertex 2.03155 34.4557 6.75
      vertex 2.18667 34.4803 0
      vertex 2.03155 34.4557 0
    endloop
  endfacet
  facet normal 0.790153 -0.61291 0
    outer loop
      vertex 43.6263 0.90644 6.75
      vertex 43.7225 1.03054 0
      vertex 43.7225 1.03054 6.75
    endloop
  endfacet
  facet normal 0.790153 -0.61291 0
    outer loop
      vertex 43.7225 1.03054 0
      vertex 43.6263 0.90644 6.75
      vertex 43.6263 0.90644 0
    endloop
  endfacet
  facet normal 1 -0 0
    outer loop
      vertex 44.2 2.5 6.75
      vertex 44.2 32 0
      vertex 44.2 32 6.75
    endloop
  endfacet
  facet normal 1 0 0
    outer loop
      vertex 44.2 32 0
      vertex 44.2 2.5 6.75
      vertex 44.2 2.5 0
    endloop
  endfacet
  facet normal 0.790151 0.612913 0
    outer loop
      vertex 43.7225 33.4695 6.75
      vertex 43.6263 33.5936 0
      vertex 43.6263 33.5936 6.75
    endloop
  endfacet
  facet normal 0.790151 0.612913 0
    outer loop
      vertex 43.6263 33.5936 0
      vertex 43.7225 33.4695 6.75
      vertex 43.7225 33.4695 0
    endloop
  endfacet
  facet normal 0.995561 0.0941202 0
    outer loop
      vertex 44.1951 32.157 6.75
      vertex 44.1803 32.3133 0
      vertex 44.1803 32.3133 6.75
    endloop
  endfacet
  facet normal 0.995561 0.0941202 0
    outer loop
      vertex 44.1803 32.3133 0
      vertex 44.1951 32.157 6.75
      vertex 44.1951 32.157 0
    endloop
  endfacet
  facet normal 0.156433 -0.987689 0
    outer loop
      vertex 42.0133 0.0197124 0
      vertex 42.1685 0.044281 6.75
      vertex 42.0133 0.0197124 6.75
    endloop
  endfacet
  facet normal 0.156433 -0.987689 0
    outer loop
      vertex 42.1685 0.044281 6.75
      vertex 42.0133 0.0197124 0
      vertex 42.1685 0.044281 0
    endloop
  endfacet
  facet normal -0.612906 -0.790156 0
    outer loop
      vertex 0.90644 0.573716 0
      vertex 1.03054 0.477457 6.75
      vertex 0.90644 0.573716 6.75
    endloop
  endfacet
  facet normal -0.612906 -0.790156 -0
    outer loop
      vertex 1.03054 0.477457 6.75
      vertex 0.90644 0.573716 0
      vertex 1.03054 0.477457 0
    endloop
  endfacet
  facet normal -0.509045 -0.86074 0
    outer loop
      vertex 1.16043 0.38918 0
      vertex 1.29562 0.309233 6.75
      vertex 1.16043 0.38918 6.75
    endloop
  endfacet
  facet normal -0.509045 -0.86074 -0
    outer loop
      vertex 1.29562 0.309233 6.75
      vertex 1.16043 0.38918 0
      vertex 1.29562 0.309233 0
    endloop
  endfacet
  facet normal -0.891008 -0.453987 0
    outer loop
      vertex 0.309233 1.29562 0
      vertex 0.237932 1.43555 6.75
      vertex 0.237932 1.43555 0
    endloop
  endfacet
  facet normal -0.891008 -0.453987 0
    outer loop
      vertex 0.237932 1.43555 6.75
      vertex 0.309233 1.29562 0
      vertex 0.309233 1.29562 6.75
    endloop
  endfacet
  facet normal -0.750112 -0.661311 0
    outer loop
      vertex 0.677578 0.788631 0
      vertex 0.573716 0.90644 6.75
      vertex 0.573716 0.90644 0
    endloop
  endfacet
  facet normal -0.750112 -0.661311 0
    outer loop
      vertex 0.573716 0.90644 6.75
      vertex 0.677578 0.788631 0
      vertex 0.677578 0.788631 6.75
    endloop
  endfacet
  facet normal -0.750114 0.661308 0
    outer loop
      vertex 0.573716 33.5936 0
      vertex 0.677578 33.7114 6.75
      vertex 0.677578 33.7114 0
    endloop
  endfacet
  facet normal -0.750114 0.661308 0
    outer loop
      vertex 0.677578 33.7114 6.75
      vertex 0.573716 33.5936 0
      vertex 0.573716 33.5936 6.75
    endloop
  endfacet
  facet normal -0.891011 0.453982 0
    outer loop
      vertex 0.237932 33.0644 0
      vertex 0.309233 33.2044 6.75
      vertex 0.309233 33.2044 0
    endloop
  endfacet
  facet normal -0.891011 0.453982 0
    outer loop
      vertex 0.309233 33.2044 6.75
      vertex 0.237932 33.0644 0
      vertex 0.237932 33.0644 6.75
    endloop
  endfacet
  facet normal -0.612895 0.790165 0
    outer loop
      vertex 1.03054 34.0225 0
      vertex 0.90644 33.9263 6.75
      vertex 1.03054 34.0225 6.75
    endloop
  endfacet
  facet normal -0.612895 0.790165 0
    outer loop
      vertex 0.90644 33.9263 6.75
      vertex 1.03054 34.0225 0
      vertex 0.90644 33.9263 0
    endloop
  endfacet
  facet normal -0.278985 0.960295 0
    outer loop
      vertex 1.87827 34.4215 0
      vertex 1.72746 34.3776 6.75
      vertex 1.87827 34.4215 6.75
    endloop
  endfacet
  facet normal -0.278985 0.960295 0
    outer loop
      vertex 1.72746 34.3776 6.75
      vertex 1.87827 34.4215 0
      vertex 1.72746 34.3776 0
    endloop
  endfacet
  facet normal -0.50905 0.860737 0
    outer loop
      vertex 1.29562 34.1908 0
      vertex 1.16043 34.1108 6.75
      vertex 1.29562 34.1908 6.75
    endloop
  endfacet
  facet normal -0.50905 0.860737 0
    outer loop
      vertex 1.16043 34.1108 6.75
      vertex 1.29562 34.1908 0
      vertex 1.16043 34.1108 0
    endloop
  endfacet
  facet normal -0.0941202 0.995561 0
    outer loop
      vertex 2.34302 34.4951 0
      vertex 2.18667 34.4803 6.75
      vertex 2.34302 34.4951 6.75
    endloop
  endfacet
  facet normal -0.0941202 0.995561 0
    outer loop
      vertex 2.18667 34.4803 6.75
      vertex 2.34302 34.4951 0
      vertex 2.18667 34.4803 0
    endloop
  endfacet
  facet normal 0.218147 -0.975916 0
    outer loop
      vertex 42.1685 0.044281 0
      vertex 42.3217 0.0785418 6.75
      vertex 42.1685 0.044281 6.75
    endloop
  endfacet
  facet normal 0.218147 -0.975916 0
    outer loop
      vertex 42.3217 0.0785418 6.75
      vertex 42.1685 0.044281 0
      vertex 42.3217 0.0785418 0
    endloop
  endfacet
  facet normal 0.278991 -0.960294 0
    outer loop
      vertex 42.3217 0.0785418 0
      vertex 42.4725 0.122358 6.75
      vertex 42.3217 0.0785418 6.75
    endloop
  endfacet
  facet normal 0.278991 -0.960294 0
    outer loop
      vertex 42.4725 0.122358 6.75
      vertex 42.3217 0.0785418 0
      vertex 42.4725 0.122358 0
    endloop
  endfacet
  facet normal 0.397147 -0.917755 0
    outer loop
      vertex 42.6203 0.175558 0
      vertex 42.7645 0.237932 6.75
      vertex 42.6203 0.175558 6.75
    endloop
  endfacet
  facet normal 0.397147 -0.917755 0
    outer loop
      vertex 42.7645 0.237932 6.75
      vertex 42.6203 0.175558 0
      vertex 42.7645 0.237932 0
    endloop
  endfacet
  facet normal 0.509048 -0.860738 0
    outer loop
      vertex 42.9044 0.309233 0
      vertex 43.0396 0.38918 6.75
      vertex 42.9044 0.309233 6.75
    endloop
  endfacet
  facet normal 0.509048 -0.860738 0
    outer loop
      vertex 43.0396 0.38918 6.75
      vertex 42.9044 0.309233 0
      vertex 43.0396 0.38918 0
    endloop
  endfacet
  facet normal 0.995561 -0.0941202 0
    outer loop
      vertex 44.1803 2.18667 6.75
      vertex 44.1951 2.34302 0
      vertex 44.1951 2.34302 6.75
    endloop
  endfacet
  facet normal 0.995561 -0.0941202 0
    outer loop
      vertex 44.1951 2.34302 0
      vertex 44.1803 2.18667 6.75
      vertex 44.1803 2.18667 0
    endloop
  endfacet
  facet normal 0.960295 -0.278985 0
    outer loop
      vertex 44.0776 1.72746 6.75
      vertex 44.1215 1.87827 0
      vertex 44.1215 1.87827 6.75
    endloop
  endfacet
  facet normal 0.960295 -0.278985 0
    outer loop
      vertex 44.1215 1.87827 0
      vertex 44.0776 1.72746 6.75
      vertex 44.0776 1.72746 0
    endloop
  endfacet
  facet normal 0.917753 -0.397152 0
    outer loop
      vertex 43.9621 1.43555 6.75
      vertex 44.0244 1.57969 0
      vertex 44.0244 1.57969 6.75
    endloop
  endfacet
  facet normal 0.917753 -0.397152 0
    outer loop
      vertex 44.0244 1.57969 0
      vertex 43.9621 1.43555 6.75
      vertex 43.9621 1.43555 0
    endloop
  endfacet
  facet normal 0.707107 0.707107 0
    outer loop
      vertex 43.5224 33.7114 6.75
      vertex 43.4114 33.8224 0
      vertex 43.4114 33.8224 6.75
    endloop
  endfacet
  facet normal 0.707107 0.707107 0
    outer loop
      vertex 43.4114 33.8224 0
      vertex 43.5224 33.7114 6.75
      vertex 43.5224 33.7114 0
    endloop
  endfacet
  facet normal 0.218165 0.975912 -0
    outer loop
      vertex 42.3217 34.4215 0
      vertex 42.1685 34.4557 6.75
      vertex 42.3217 34.4215 6.75
    endloop
  endfacet
  facet normal 0.218165 0.975912 0
    outer loop
      vertex 42.1685 34.4557 6.75
      vertex 42.3217 34.4215 0
      vertex 42.1685 34.4557 0
    endloop
  endfacet
  facet normal 0.987687 0.156445 0
    outer loop
      vertex 44.1803 32.3133 6.75
      vertex 44.1557 32.4685 0
      vertex 44.1557 32.4685 6.75
    endloop
  endfacet
  facet normal 0.987687 0.156445 0
    outer loop
      vertex 44.1557 32.4685 0
      vertex 44.1803 32.3133 6.75
      vertex 44.1803 32.3133 0
    endloop
  endfacet
  facet normal -0.562077 0.827085 0
    outer loop
      vertex 1.16043 34.1108 0
      vertex 1.03054 34.0225 6.75
      vertex 1.16043 34.1108 6.75
    endloop
  endfacet
  facet normal -0.562077 0.827085 0
    outer loop
      vertex 1.03054 34.0225 6.75
      vertex 1.16043 34.1108 0
      vertex 1.03054 34.0225 0
    endloop
  endfacet
  facet normal -0.338736 0.940881 0
    outer loop
      vertex 1.72746 34.3776 0
      vertex 1.57969 34.3244 6.75
      vertex 1.72746 34.3776 6.75
    endloop
  endfacet
  facet normal -0.338736 0.940881 0
    outer loop
      vertex 1.57969 34.3244 6.75
      vertex 1.72746 34.3776 0
      vertex 1.57969 34.3244 0
    endloop
  endfacet
  facet normal 0.338734 -0.940882 0
    outer loop
      vertex 42.4725 0.122358 0
      vertex 42.6203 0.175558 6.75
      vertex 42.4725 0.122358 6.75
    endloop
  endfacet
  facet normal 0.338734 -0.940882 0
    outer loop
      vertex 42.6203 0.175558 6.75
      vertex 42.4725 0.122358 0
      vertex 42.6203 0.175558 0
    endloop
  endfacet
  facet normal 0.562076 -0.827086 0
    outer loop
      vertex 43.0396 0.38918 0
      vertex 43.1695 0.477457 6.75
      vertex 43.0396 0.38918 6.75
    endloop
  endfacet
  facet normal 0.562076 -0.827086 0
    outer loop
      vertex 43.1695 0.477457 6.75
      vertex 43.0396 0.38918 0
      vertex 43.1695 0.477457 0
    endloop
  endfacet
  facet normal 0.707107 -0.707107 0
    outer loop
      vertex 43.4114 0.677578 6.75
      vertex 43.5224 0.788631 0
      vertex 43.5224 0.788631 6.75
    endloop
  endfacet
  facet normal 0.707107 -0.707107 0
    outer loop
      vertex 43.5224 0.788631 0
      vertex 43.4114 0.677578 6.75
      vertex 43.4114 0.677578 0
    endloop
  endfacet
  facet normal 0.987686 -0.156446 0
    outer loop
      vertex 44.1557 2.03155 6.75
      vertex 44.1803 2.18667 0
      vertex 44.1803 2.18667 6.75
    endloop
  endfacet
  facet normal 0.987686 -0.156446 0
    outer loop
      vertex 44.1803 2.18667 0
      vertex 44.1557 2.03155 6.75
      vertex 44.1557 2.03155 0
    endloop
  endfacet
  facet normal 0.940881 -0.338736 0
    outer loop
      vertex 44.0244 1.57969 6.75
      vertex 44.0776 1.72746 0
      vertex 44.0776 1.72746 6.75
    endloop
  endfacet
  facet normal 0.940881 -0.338736 0
    outer loop
      vertex 44.0776 1.72746 0
      vertex 44.0244 1.57969 6.75
      vertex 44.0244 1.57969 0
    endloop
  endfacet
  facet normal 0.827074 -0.562094 0
    outer loop
      vertex 43.7225 1.03054 6.75
      vertex 43.8108 1.16043 0
      vertex 43.8108 1.16043 6.75
    endloop
  endfacet
  facet normal 0.827074 -0.562094 0
    outer loop
      vertex 43.8108 1.16043 0
      vertex 43.7225 1.03054 6.75
      vertex 43.7225 1.03054 0
    endloop
  endfacet
  facet normal 0.860748 -0.509032 0
    outer loop
      vertex 43.8108 1.16043 6.75
      vertex 43.8908 1.29562 0
      vertex 43.8908 1.29562 6.75
    endloop
  endfacet
  facet normal 0.860748 -0.509032 0
    outer loop
      vertex 43.8908 1.29562 0
      vertex 43.8108 1.16043 6.75
      vertex 43.8108 1.16043 0
    endloop
  endfacet
  facet normal 0.661311 0.750111 -0
    outer loop
      vertex 43.4114 33.8224 0
      vertex 43.2936 33.9263 6.75
      vertex 43.4114 33.8224 6.75
    endloop
  endfacet
  facet normal 0.661311 0.750111 0
    outer loop
      vertex 43.2936 33.9263 6.75
      vertex 43.4114 33.8224 0
      vertex 43.2936 33.9263 0
    endloop
  endfacet
  facet normal 0.750123 0.661298 0
    outer loop
      vertex 43.6263 33.5936 6.75
      vertex 43.5224 33.7114 0
      vertex 43.5224 33.7114 6.75
    endloop
  endfacet
  facet normal 0.750123 0.661298 0
    outer loop
      vertex 43.5224 33.7114 0
      vertex 43.6263 33.5936 6.75
      vertex 43.6263 33.5936 0
    endloop
  endfacet
  facet normal 0.891011 0.453982 0
    outer loop
      vertex 43.9621 33.0644 6.75
      vertex 43.8908 33.2044 0
      vertex 43.8908 33.2044 6.75
    endloop
  endfacet
  facet normal 0.891011 0.453982 0
    outer loop
      vertex 43.8908 33.2044 0
      vertex 43.9621 33.0644 6.75
      vertex 43.9621 33.0644 0
    endloop
  endfacet
  facet normal 0.860746 0.509035 0
    outer loop
      vertex 43.8908 33.2044 6.75
      vertex 43.8108 33.3396 0
      vertex 43.8108 33.3396 6.75
    endloop
  endfacet
  facet normal 0.860746 0.509035 0
    outer loop
      vertex 43.8108 33.3396 0
      vertex 43.8908 33.2044 6.75
      vertex 43.8908 33.2044 0
    endloop
  endfacet
  facet normal 0.940882 0.338734 0
    outer loop
      vertex 44.0776 32.7725 6.75
      vertex 44.0244 32.9203 0
      vertex 44.0244 32.9203 6.75
    endloop
  endfacet
  facet normal 0.940882 0.338734 0
    outer loop
      vertex 44.0244 32.9203 0
      vertex 44.0776 32.7725 6.75
      vertex 44.0776 32.7725 0
    endloop
  endfacet
  facet normal 0.453992 -0.891006 0
    outer loop
      vertex 42.7645 0.237932 0
      vertex 42.9044 0.309233 6.75
      vertex 42.7645 0.237932 6.75
    endloop
  endfacet
  facet normal 0.453992 -0.891006 0
    outer loop
      vertex 42.9044 0.309233 6.75
      vertex 42.7645 0.237932 0
      vertex 42.9044 0.309233 0
    endloop
  endfacet
  facet normal 0.661308 -0.750114 0
    outer loop
      vertex 43.2936 0.573716 0
      vertex 43.4114 0.677578 6.75
      vertex 43.2936 0.573716 6.75
    endloop
  endfacet
  facet normal 0.661308 -0.750114 0
    outer loop
      vertex 43.4114 0.677578 6.75
      vertex 43.2936 0.573716 0
      vertex 43.4114 0.677578 0
    endloop
  endfacet
  facet normal 0.750121 -0.661301 0
    outer loop
      vertex 43.5224 0.788631 6.75
      vertex 43.6263 0.90644 0
      vertex 43.6263 0.90644 6.75
    endloop
  endfacet
  facet normal 0.750121 -0.661301 0
    outer loop
      vertex 43.6263 0.90644 0
      vertex 43.5224 0.788631 6.75
      vertex 43.5224 0.788631 0
    endloop
  endfacet
  facet normal 0.891008 -0.453987 0
    outer loop
      vertex 43.8908 1.29562 6.75
      vertex 43.9621 1.43555 0
      vertex 43.9621 1.43555 6.75
    endloop
  endfacet
  facet normal 0.891008 -0.453987 0
    outer loop
      vertex 43.9621 1.43555 0
      vertex 43.8908 1.29562 6.75
      vertex 43.8908 1.29562 0
    endloop
  endfacet
  facet normal 0.562071 0.827089 -0
    outer loop
      vertex 43.1695 34.0225 0
      vertex 43.0396 34.1108 6.75
      vertex 43.1695 34.0225 6.75
    endloop
  endfacet
  facet normal 0.562071 0.827089 0
    outer loop
      vertex 43.0396 34.1108 6.75
      vertex 43.1695 34.0225 0
      vertex 43.0396 34.1108 0
    endloop
  endfacet
  facet normal 0.509053 0.860735 -0
    outer loop
      vertex 43.0396 34.1108 0
      vertex 42.9044 34.1908 6.75
      vertex 43.0396 34.1108 6.75
    endloop
  endfacet
  facet normal 0.509053 0.860735 0
    outer loop
      vertex 42.9044 34.1908 6.75
      vertex 43.0396 34.1108 0
      vertex 42.9044 34.1908 0
    endloop
  endfacet
  facet normal 0.278985 0.960295 -0
    outer loop
      vertex 42.4725 34.3776 0
      vertex 42.3217 34.4215 6.75
      vertex 42.4725 34.3776 6.75
    endloop
  endfacet
  facet normal 0.278985 0.960295 0
    outer loop
      vertex 42.3217 34.4215 6.75
      vertex 42.4725 34.3776 0
      vertex 42.3217 34.4215 0
    endloop
  endfacet
  facet normal 0.827077 0.562088 0
    outer loop
      vertex 43.8108 33.3396 6.75
      vertex 43.7225 33.4695 0
      vertex 43.7225 33.4695 6.75
    endloop
  endfacet
  facet normal 0.827077 0.562088 0
    outer loop
      vertex 43.7225 33.4695 0
      vertex 43.8108 33.3396 6.75
      vertex 43.8108 33.3396 0
    endloop
  endfacet
  facet normal 0.917751 0.397156 0
    outer loop
      vertex 44.0244 32.9203 6.75
      vertex 43.9621 33.0644 0
      vertex 43.9621 33.0644 6.75
    endloop
  endfacet
  facet normal 0.917751 0.397156 0
    outer loop
      vertex 43.9621 33.0644 0
      vertex 44.0244 32.9203 6.75
      vertex 44.0244 32.9203 0
    endloop
  endfacet
  facet normal 0.960295 0.278985 0
    outer loop
      vertex 44.1215 32.6217 6.75
      vertex 44.0776 32.7725 0
      vertex 44.0776 32.7725 6.75
    endloop
  endfacet
  facet normal 0.960295 0.278985 0
    outer loop
      vertex 44.0776 32.7725 0
      vertex 44.1215 32.6217 6.75
      vertex 44.1215 32.6217 0
    endloop
  endfacet
  facet normal 0.975917 0.218142 0
    outer loop
      vertex 44.1557 32.4685 6.75
      vertex 44.1215 32.6217 0
      vertex 44.1215 32.6217 6.75
    endloop
  endfacet
  facet normal 0.975917 0.218142 0
    outer loop
      vertex 44.1215 32.6217 0
      vertex 44.1557 32.4685 6.75
      vertex 44.1557 32.4685 0
    endloop
  endfacet
  facet normal 0.338734 0.940882 -0
    outer loop
      vertex 42.6203 34.3244 0
      vertex 42.4725 34.3776 6.75
      vertex 42.6203 34.3244 6.75
    endloop
  endfacet
  facet normal 0.338734 0.940882 0
    outer loop
      vertex 42.4725 34.3776 6.75
      vertex 42.6203 34.3244 0
      vertex 42.4725 34.3776 0
    endloop
  endfacet
  facet normal 0.0941202 0.995561 -0
    outer loop
      vertex 42.0133 34.4803 0
      vertex 41.857 34.4951 6.75
      vertex 42.0133 34.4803 6.75
    endloop
  endfacet
  facet normal 0.0941202 0.995561 0
    outer loop
      vertex 41.857 34.4951 6.75
      vertex 42.0133 34.4803 0
      vertex 41.857 34.4951 0
    endloop
  endfacet
  facet normal 0.156422 0.98769 -0
    outer loop
      vertex 42.1685 34.4557 0
      vertex 42.0133 34.4803 6.75
      vertex 42.1685 34.4557 6.75
    endloop
  endfacet
  facet normal 0.156422 0.98769 0
    outer loop
      vertex 42.0133 34.4803 6.75
      vertex 42.1685 34.4557 0
      vertex 42.0133 34.4803 0
    endloop
  endfacet
  facet normal 0 0 1
    outer loop
      vertex 42.7 33 1.5
      vertex 34 27.25 1.5
      vertex 42.7 1.5 1.5
    endloop
  endfacet
  facet normal 0 0 1
    outer loop
      vertex 42.7 33 1.5
      vertex 33 27.25 1.5
      vertex 34 27.25 1.5
    endloop
  endfacet
  facet normal 0 0 1
    outer loop
      vertex 33 27.25 1.5
      vertex 1.5 33 1.5
      vertex 33 7.25 1.5
    endloop
  endfacet
  facet normal -0 0 1
    outer loop
      vertex 1.5 33 1.5
      vertex 33 27.25 1.5
      vertex 42.7 33 1.5
    endloop
  endfacet
  facet normal -0 0 1
    outer loop
      vertex 34 7.25 1.5
      vertex 42.7 1.5 1.5
      vertex 34 27.25 1.5
    endloop
  endfacet
  facet normal -0 0 1
    outer loop
      vertex 33 7.25 1.5
      vertex 42.7 1.5 1.5
      vertex 34 7.25 1.5
    endloop
  endfacet
  facet normal 0 0 1
    outer loop
      vertex 33 7.25 1.5
      vertex 1.5 1.5 1.5
      vertex 42.7 1.5 1.5
    endloop
  endfacet
  facet normal 0 0 1
    outer loop
      vertex 1.5 1.5 1.5
      vertex 33 7.25 1.5
      vertex 1.5 33 1.5
    endloop
  endfacet
  facet normal -1 0 0
    outer loop
      vertex 33 7.25 1.5
      vertex 33 27.25 6.75
      vertex 33 27.25 1.5
    endloop
  endfacet
  facet normal -1 -0 0
    outer loop
      vertex 33 27.25 6.75
      vertex 33 7.25 1.5
      vertex 33 7.25 6.75
    endloop
  endfacet
  facet normal -0 0 1
    outer loop
      vertex 33 27.25 6.75
      vertex 34 7.25 6.75
      vertex 34 27.25 6.75
    endloop
  endfacet
  facet normal 0 0 1
    outer loop
      vertex 34 7.25 6.75
      vertex 33 27.25 6.75
      vertex 33 7.25 6.75
    endloop
  endfacet
  facet normal 1 -0 0
    outer loop
      vertex 34 7.25 6.75
      vertex 34 27.25 1.5
      vertex 34 27.25 6.75
    endloop
  endfacet
  facet normal 1 0 0
    outer loop
      vertex 34 27.25 1.5
      vertex 34 7.25 6.75
      vertex 34 7.25 1.5
    endloop
  endfacet
  facet normal 0 1 -0
    outer loop
      vertex 34 27.25 1.5
      vertex 33 27.25 6.75
      vertex 34 27.25 6.75
    endloop
  endfacet
  facet normal 0 1 0
    outer loop
      vertex 33 27.25 6.75
      vertex 34 27.25 1.5
      vertex 33 27.25 1.5
    endloop
  endfacet
  facet normal 0 -1 0
    outer loop
      vertex 33 7.25 1.5
      vertex 34 7.25 6.75
      vertex 33 7.25 6.75
    endloop
  endfacet
  facet normal 0 -1 -0
    outer loop
      vertex 34 7.25 6.75
      vertex 33 7.25 1.5
      vertex 34 7.25 1.5
    endloop
  endfacet
endsolid OpenSCAD_Model
